<?xml version="1.0" encoding="UTF-8" standalone="no"?>
<svg
   version="1.1"
   width="256"
   height="256"
   viewBox="0 0 256 256"
   xml:space="preserve"
   id="svg10"
   sodipodi:docname="yt.svg"
   inkscape:version="1.2.1 (9c6d41e410, 2022-07-14)"
   xmlns:inkscape="http://www.inkscape.org/namespaces/inkscape"
   xmlns:sodipodi="http://sodipodi.sourceforge.net/DTD/sodipodi-0.dtd"
   xmlns="http://www.w3.org/2000/svg"
   xmlns:svg="http://www.w3.org/2000/svg"><sodipodi:namedview
   id="namedview12"
   pagecolor="#ffffff"
   bordercolor="#000000"
   borderopacity="0.25"
   inkscape:showpageshadow="2"
   inkscape:pageopacity="0.0"
   inkscape:pagecheckerboard="0"
   inkscape:deskcolor="#d1d1d1"
   showgrid="false"
   inkscape:zoom="4.0117188"
   inkscape:cx="122.6407"
   inkscape:cy="128.12463"
   inkscape:window-width="2560"
   inkscape:window-height="1377"
   inkscape:window-x="1072"
   inkscape:window-y="166"
   inkscape:window-maximized="1"
   inkscape:current-layer="g8" />

<defs
   id="defs2">
</defs>
<g
   style="stroke: none; stroke-width: 0; stroke-dasharray: none; stroke-linecap: butt; stroke-linejoin: miter; stroke-miterlimit: 10; fill: none; fill-rule: nonzero; opacity: 1;"
   transform="translate(1.4065934065934016 1.4065934065934016) scale(2.81 2.81)"
   id="g8">
	<path
   id="path4"
   style="stroke:none;stroke-width:1;stroke-dasharray:none;stroke-linecap:butt;stroke-linejoin:miter;stroke-miterlimit:10;fill:#8e8e97;fill-rule:evenodd;opacity:1;fill-opacity:1"
   d="M 45.000295 13.500072 C 45.000295 13.500072 16.855782 13.499913 9.8377893 15.380911 C 5.9657931 16.41591 2.9157153 19.465988 1.8807163 23.337984 C -0.00028180462 30.355977 -0.00012220875 45.000295 -0.00012220875 45.000295 C -0.00012220875 45.000295 -0.00028180462 59.643918 1.8807163 66.661911 C 2.9157153 70.533907 5.9657931 73.583985 9.8377893 74.618984 C 16.855782 76.499982 45.000295 76.499822 45.000295 76.499822 C 45.000295 76.499822 73.144112 76.499982 80.162105 74.618984 C 84.034101 73.583985 87.084179 70.533907 88.119178 66.661911 C 90.000176 59.643918 90.000017 45.000295 90.000017 45.000295 C 90.000017 45.000295 90.000176 30.355977 88.119178 23.337984 C 87.084179 19.465988 84.034101 16.41591 80.162105 15.380911 C 73.144112 13.499913 45.000295 13.500072 45.000295 13.500072 z M 35.999933 31.5001 L 59.379743 45.000295 L 35.999933 58.499794 L 35.999933 31.5001 z " />
	
</g>
</svg>
