<?xml version="1.0" encoding="UTF-8" standalone="no"?>
<!-- Created with Inkscape (http://www.inkscape.org/) -->

<svg
   version="1.1"
   id="svg2"
   width="598"
   height="336"
   viewBox="0 0 598 336"
   sodipodi:docname="ytempty.svg"
   inkscape:version="1.2.1 (9c6d41e410, 2022-07-14)"
   xmlns:inkscape="http://www.inkscape.org/namespaces/inkscape"
   xmlns:sodipodi="http://sodipodi.sourceforge.net/DTD/sodipodi-0.dtd"
   xmlns="http://www.w3.org/2000/svg"
   xmlns:svg="http://www.w3.org/2000/svg">
  <defs
     id="defs6" />
  <sodipodi:namedview
     id="namedview4"
     pagecolor="#ffffff"
     bordercolor="#000000"
     borderopacity="0.25"
     inkscape:showpageshadow="2"
     inkscape:pageopacity="0.0"
     inkscape:pagecheckerboard="0"
     inkscape:deskcolor="#d1d1d1"
     showgrid="false"
     inkscape:zoom="1.4307679"
     inkscape:cx="164.59693"
     inkscape:cy="138.38723"
     inkscape:window-width="2560"
     inkscape:window-height="1377"
     inkscape:window-x="1072"
     inkscape:window-y="166"
     inkscape:window-maximized="1"
     inkscape:current-layer="g8" />
  <g
     inkscape:groupmode="layer"
     inkscape:label="Image"
     id="g8">
    <rect
       style="fill:#18181b;fill-opacity:1;stroke:none;stroke-width:21.47;stroke-linecap:round;stroke-linejoin:round;stroke-opacity:0.176471"
       id="rect2166"
       width="598"
       height="336"
       x="0"
       y="-1.2656542e-14" />
    <g
       style="fill:none;fill-rule:nonzero;stroke:none;stroke-width:0;stroke-linecap:butt;stroke-linejoin:miter;stroke-miterlimit:10;stroke-dasharray:none"
       transform="matrix(3.0571074,0,0,3.0571074,161.43017,30.430167)"
       id="g1953">
	<path
   d="M 88.119,23.338 C 87.084,19.466 84.034,16.416 80.162,15.381 73.144,13.5 45,13.5 45,13.5 c 0,0 -28.144,0 -35.162,1.881 C 5.966,16.416 2.916,19.466 1.881,23.338 0,30.356 0,45 0,45 0,45 0,59.644 1.881,66.662 2.916,70.534 5.966,73.584 9.838,74.619 16.856,76.5 45,76.5 45,76.5 c 0,0 28.144,0 35.162,-1.881 3.872,-1.035 6.922,-4.085 7.957,-7.957 C 90,59.644 90,45 90,45 90,45 90,30.356 88.119,23.338 Z"
   style="opacity:1;fill:#313137;fill-rule:nonzero;stroke:none;stroke-width:1;stroke-linecap:butt;stroke-linejoin:miter;stroke-miterlimit:10;stroke-dasharray:none;fill-opacity:1"
   stroke-linecap="round"
   id="path1949" />

	
</g>
    <path
       style="fill:#5a5a63;fill-opacity:1;stroke:none;stroke-width:3.38891;stroke-linecap:round;stroke-linejoin:round;stroke-opacity:0.176471"
       id="path3674"
       sodipodi:type="arc"
       sodipodi:cx="250.07272"
       sodipodi:cy="168"
       sodipodi:rx="15"
       sodipodi:ry="15"
       sodipodi:start="0"
       sodipodi:end="6.276964"
       sodipodi:open="true"
       sodipodi:arc-type="arc"
       d="m 265.07272,168 a 15,15 0 0 1 -14.97667,14.99998 15,15 0 0 1 -15.02325,-14.95332 15,15 0 0 1 14.92993,-15.0465 15,15 0 0 1 15.0697,14.90652" />
    <path
       style="fill:#5a5a63;fill-opacity:1;stroke:none;stroke-width:3.38891;stroke-linecap:round;stroke-linejoin:round;stroke-opacity:0.176471"
       id="path3674-1"
       sodipodi:type="arc"
       sodipodi:cx="299"
       sodipodi:cy="168"
       sodipodi:rx="15"
       sodipodi:ry="15"
       sodipodi:start="0"
       sodipodi:end="6.276964"
       sodipodi:open="true"
       sodipodi:arc-type="arc"
       d="m 314,168 a 15,15 0 0 1 -14.97667,14.99998 15,15 0 0 1 -15.02326,-14.95332 15,15 0 0 1 14.92994,-15.0465 15,15 0 0 1 15.0697,14.90652" />
    <path
       style="fill:#5a5a63;fill-opacity:1;stroke:none;stroke-width:3.38891;stroke-linecap:round;stroke-linejoin:round;stroke-opacity:0.176471"
       id="path3674-1-8"
       sodipodi:type="arc"
       sodipodi:cx="347.92728"
       sodipodi:cy="168"
       sodipodi:rx="15"
       sodipodi:ry="15"
       sodipodi:start="0"
       sodipodi:end="6.276964"
       sodipodi:open="true"
       sodipodi:arc-type="arc"
       d="m 362.92728,168 a 15,15 0 0 1 -14.97667,14.99998 15,15 0 0 1 -15.02326,-14.95332 15,15 0 0 1 14.92994,-15.0465 15,15 0 0 1 15.0697,14.90652" />
  </g>
</svg>
